<svg xmlns="http://www.w3.org/2000/svg" width="1200" height="700" viewBox="0 0 1200 700">
  <!-- Adapted from mdi-heart, Pictogrammers Material Design Icons, Apache-2.0. -->
  <path fill="#e94f78" d="M600 650C520 576 170 366 170 174C170 48 270 18 378 18C478 18 556 72 600 148C644 72 722 18 822 18C930 18 1030 48 1030 174C1030 366 680 576 600 650Z"/>
  <path fill="#ff9db6" d="M600 570C536 516 260 338 260 190C260 116 322 88 388 88C480 88 550 166 600 244C650 166 720 88 812 88C878 88 940 116 940 190C940 338 664 516 600 570Z" opacity=".72"/>
</svg>
