<svg xmlns="http://www.w3.org/2000/svg" viewBox="0 0 512 512" width="1200" height="700" preserveAspectRatio="xMidYMid meet"><path fill="#315a73" d="M151 22v32h18V22h-18zm48 0v32h18V22h-18zm48 0v32h18V22h-18zm48 0v32h18V22h-18zm48 0v32h18V22h-18zM131.7 73L73 131.7v248.6l58.7 58.7h248.6l58.7-58.7V131.7L380.3 73H131.7zm60.3 46h128v18H192v-18zM22 151v18h32v-18H22zm436 0v18h32v-18h-32zm-339 32h274v146H119V183zm-97 16v18h32v-18H22zm436 0v18h32v-18h-32zm-321 2v110h238V201H137zM22 247v18h32v-18H22zm436 0v18h32v-18h-32zM22 295v18h32v-18H22zm436 0v18h32v-18h-32zM22 343v18h32v-18H22zm436 0v18h32v-18h-32zm-266 32h128v18H192v-18zm-41 83v32h18v-32h-18zm48 0v32h18v-32h-18zm48 0v32h18v-32h-18zm48 0v32h18v-32h-18zm48 0v32h18v-32h-18z"/>
  <g data-guide-route-spine="curated" fill="none" stroke="#315a73" stroke-opacity="0.72" stroke-width="9" stroke-linecap="round" stroke-linejoin="round"><path d="M 122 151 L 255 137 L 388 151 L 188 358 L 326 358"/></g>
  <g data-star-markers="curated" aria-hidden="true" opacity="0"><circle data-star="1" cx="122" cy="151" r="1"/><circle data-star="2" cx="255" cy="137" r="1"/><circle data-star="3" cx="388" cy="151" r="1"/><circle data-star="4" cx="188" cy="358" r="1"/><circle data-star="5" cx="326" cy="358" r="1"/></g>
</svg>